General
Count                                    : 290
Count of stream of this kind             : 1
Kind of stream                           : General
Kind of stream                           : General
Stream identifier                        : 0
Unique ID                                : 239160714762567070409396587733494815711
Unique ID                                : 239160714762567070409396587733494815711 (0xB3ECAD9F0DF028728EE1ECB336C05BDF)
Count of video streams                   : 1
Count of audio streams                   : 4
Count of text streams                    : 1
Count of menu streams                    : 1
Video_Format_List                        : AVC
Video_Format_WithHint_List               : AVC
Codecs Video                             : AVC
Video_Language_List                      : English
Audio_Format_List                        : DTS / AC-3 / DTS / AC-3
Audio_Format_WithHint_List               : DTS / AC-3 / DTS / AC-3
Audio codecs                             : DTS / AC3 / DTS / AC3
Audio_Language_List                      : Italian / Italian / French / French
Text_Format_List                         : UTF-8
Text_Format_WithHint_List                : UTF-8
Text codecs                              : UTF-8
Text_Language_List                       : Italian
Complete name                            : \\synology\DITTA\Belle e Sebastien (2013).mkv
Folder name                              : \\synology\DITTA
File name                                : Belle e Sebastien (2013)
File extension                           : mkv
Format                                   : Matroska
Format                                   : Matroska
Format/Url                               : http://packs.matroska.org/
Format/Extensions usually used           : mkv mk3d mka mks
Commercial name                          : Matroska
Format version                           : Version 4 / Version 2
Codec                                    : Matroska
Codec                                    : Matroska
Codec/Url                                : http://packs.matroska.org/
Codec/Extensions usually used            : mkv mk3d mka mks
File size                                : 10559343935
File size                                : 9.83 GiB
File size                                : 10 GiB
File size                                : 9.8 GiB
File size                                : 9.83 GiB
File size                                : 9.834 GiB
Duration                                 : 5990500
Duration                                 : 1h 39mn
Duration                                 : 1h 39mn 50s 500ms
Duration                                 : 1h 39mn
Duration                                 : 01:39:50.500
Overall bit rate mode                    : VBR
Overall bit rate mode                    : Variable
Overall bit rate                         : 14101453
Overall bit rate                         : 14.1 Mbps
Stream size                              : 210130613
Stream size                              : 200 MiB (2%)
Stream size                              : 200 MiB
Stream size                              : 200 MiB
Stream size                              : 200 MiB
Stream size                              : 200.4 MiB
Stream size                              : 200 MiB (2%)
Proportion of this stream                : 0.01990
Encoded date                             : UTC 2014-05-25 01:09:57
File creation date                       : UTC 2014-10-12 08:45:46.219
File creation date (local)               : 2014-10-12 10:45:46.219
File last modification date              : UTC 2014-10-11 03:01:21.802
File last modification date (local)      : 2014-10-11 05:01:21.802
Writing application                      : mkvmerge v6.9.1 ('Blue Panther') 32bit built on Apr 18 2014 18:15:44
Writing library                          : libebml v1.3.0 + libmatroska v1.4.1
Writing library                          : libebml v1.3.0 + libmatroska v1.4.1

Video
Count                                    : 277
Count of stream of this kind             : 1
Kind of stream                           : Video
Kind of stream                           : Video
Stream identifier                        : 0
StreamOrder                              : 0
ID                                       : 1
ID                                       : 1
Unique ID                                : 852918374964150194
Format                                   : AVC
Format/Info                              : Advanced Video Codec
Format/Url                               : http://developers.videolan.org/x264.html
Commercial name                          : AVC
Format profile                           : High@L4.1
Format settings                          : CABAC / 5 Ref Frames
Format settings, CABAC                   : Yes
Format settings, CABAC                   : Yes
Format settings, ReFrames                : 5
Format settings, ReFrames                : 5 frames
Internet media type                      : video/H264
Codec ID                                 : V_MPEG4/ISO/AVC
Codec ID/Url                             : http://ffdshow-tryout.sourceforge.net/
Codec                                    : V_MPEG4/ISO/AVC
Codec                                    : AVC
Codec/Family                             : AVC
Codec/Info                               : Advanced Video Codec
Codec/Url                                : http://ffdshow-tryout.sourceforge.net/
Codec profile                            : High@L4.1
Codec settings                           : CABAC / 5 Ref Frames
Codec settings, CABAC                    : Yes
Codec_Settings_RefFrames                 : 5
Duration                                 : 5990500
Duration                                 : 1h 39mn
Duration                                 : 1h 39mn 50s 500ms
Duration                                 : 1h 39mn
Duration                                 : 01:39:50.500
Bit rate mode                            : VBR
Bit rate mode                            : Variable
Bit rate                                 : 9800000
Bit rate                                 : 9 800 Kbps
Maximum bit rate                         : 62499968
Maximum bit rate                         : 62.5 Mbps
Width                                    : 1920
Width                                    : 1 920 pixels
Height                                   : 816
Height                                   : 816 pixels
Pixel aspect ratio                       : 1.000
Display aspect ratio                     : 2.353
Display aspect ratio                     : 2.35:1
Frame rate mode                          : CFR
Frame rate mode                          : Constant
Frame rate                               : 24.000
Frame rate                               : 24.000 fps
Frame count                              : 143772
Resolution                               : 8
Resolution                               : 8 bits
Colorimetry                              : 4:2:0
Color space                              : YUV
Chroma subsampling                       : 4:2:0
Bit depth                                : 8
Bit depth                                : 8 bits
Scan type                                : Progressive
Scan type                                : Progressive
Interlacement                            : PPF
Interlacement                            : Progressive
Bits/(Pixel*Frame)                       : 0.261
Delay                                    : 0
Delay                                    : 00:00:00.000
Delay, origin                            : Container
Delay, origin                            : Container
Stream size                              : 7130817198
Stream size                              : 6.64 GiB (68%)
Stream size                              : 7 GiB
Stream size                              : 6.6 GiB
Stream size                              : 6.64 GiB
Stream size                              : 6.641 GiB
Stream size                              : 6.64 GiB (68%)
Proportion of this stream                : 0.67531
Writing library                          : x264 - core 142 r2431 ac76440
Writing library                          : x264 core 142 r2431 ac76440
Writing library/Name                     : x264
Writing library/Version                  : core 142 r2431 ac76440
Encoding settings                        : cabac=1 / ref=5 / deblock=1:0:0 / analyse=0x3:0x113 / me=umh / subme=8 / psy=1 / psy_rd=1.00:0.00 / mixed_ref=1 / me_range=16 / chroma_me=1 / trellis=1 / 8x8dct=1 / cqm=0 / deadzone=21,11 / fast_pskip=1 / chroma_qp_offset=-2 / threads=12 / lookahead_threads=2 / sliced_threads=0 / nr=0 / decimate=1 / interlaced=0 / bluray_compat=0 / constrained_intra=0 / bframes=3 / b_pyramid=0 / b_adapt=2 / b_bias=0 / direct=3 / weightb=1 / open_gop=0 / weightp=2 / keyint=240 / keyint_min=24 / scenecut=40 / intra_refresh=0 / rc_lookahead=50 / rc=2pass / mbtree=1 / bitrate=9800 / ratetol=1.0 / qcomp=0.60 / qpmin=0 / qpmax=69 / qpstep=4 / cplxblur=20.0 / qblur=0.5 / vbv_maxrate=62500 / vbv_bufsize=62500 / nal_hrd=vbr / filler=0 / ip_ratio=1.40 / aq=1:1.00
Default                                  : Yes
Default                                  : Yes
Forced                                   : No
Forced                                   : No
Buffer size                              : 62500000

Audio #1
Count                                    : 230
Count of stream of this kind             : 4
Kind of stream                           : Audio
Kind of stream                           : Audio
Stream identifier                        : 0
Stream identifier                        : 1
StreamOrder                              : 1
ID                                       : 2
ID                                       : 2
Unique ID                                : 4227789836757918090
Format                                   : DTS
Format/Info                              : Digital Theater Systems
Commercial name                          : DTS
Mode                                     : 16
Format settings, Endianness              : Big
Codec ID                                 : A_DTS
Codec                                    : DTS
Codec                                    : DTS
Codec/Family                             : DTS
Duration                                 : 5990500
Duration                                 : 1h 39mn
Duration                                 : 1h 39mn 50s 500ms
Duration                                 : 1h 39mn
Duration                                 : 01:39:50.500
Bit rate mode                            : CBR
Bit rate mode                            : Constant
Bit rate                                 : 1509000
Bit rate                                 : 1 509 Kbps
Channel(s)                               : 6
Channel(s)                               : 6 channels
Channel positions                        : Front: L C R, Side: L R, LFE
Channel positions                        : 3/2/0.1
ChannelLayout                            : C L R Ls Rs LFE
Sampling rate                            : 48000
Sampling rate                            : 48.0 KHz
Samples count                            : 287544000
Resolution                               : 24
Resolution                               : 24 bits
Bit depth                                : 24
Bit depth                                : 24 bits
Compression mode                         : Lossy
Compression mode                         : Lossy
Delay                                    : 0
Delay                                    : 00:00:00.000
Delay, origin                            : Container
Delay, origin                            : Container
Delay relative to video                  : 0
Video0 delay                             : 0
Stream size                              : 1129958062
Stream size                              : 1.05 GiB (11%)
Stream size                              : 1 GiB
Stream size                              : 1.1 GiB
Stream size                              : 1.05 GiB
Stream size                              : 1.052 GiB
Stream size                              : 1.05 GiB (11%)
Proportion of this stream                : 0.10701
Title                                    : Ita. DTS 1510 Kbps
Language                                 : it
Language                                 : Italian
Language                                 : Italian
Language                                 : it
Language                                 : ita
Language                                 : it
Default                                  : Yes
Default                                  : Yes
Forced                                   : No
Forced                                   : No

Audio #2
Count                                    : 242
Count of stream of this kind             : 4
Kind of stream                           : Audio
Kind of stream                           : Audio
Stream identifier                        : 1
Stream identifier                        : 2
StreamOrder                              : 2
ID                                       : 3
ID                                       : 3
Unique ID                                : 3267804203058966463
Format                                   : AC-3
Format/Info                              : Audio Coding 3
Commercial name                          : AC-3
Mode extension                           : CM (complete main)
Format settings, Endianness              : Big
Codec ID                                 : A_AC3
Codec                                    : AC3
Codec                                    : AC3
Codec/Family                             : AC3
Codec/Info                               : Dolby AC3
Duration                                 : 5990500
Duration                                 : 1h 39mn
Duration                                 : 1h 39mn 50s 500ms
Duration                                 : 1h 39mn
Duration                                 : 01:39:50.500
Bit rate mode                            : CBR
Bit rate mode                            : Constant
Bit rate                                 : 640000
Bit rate                                 : 640 Kbps
Channel(s)                               : 6
Channel(s)                               : 6 channels
Channel positions                        : Front: L C R, Side: L R, LFE
Channel positions                        : 3/2/0.1
ChannelLayout                            : L C R LFE Ls Rs
Sampling rate                            : 48000
Sampling rate                            : 48.0 KHz
Samples count                            : 287544000
Resolution                               : 16
Resolution                               : 16 bits
Bit depth                                : 16
Bit depth                                : 16 bits
Compression mode                         : Lossy
Compression mode                         : Lossy
Delay                                    : 0
Delay                                    : 00:00:00.000
Delay, origin                            : Container
Delay, origin                            : Container
Delay relative to video                  : 0
Video0 delay                             : 0
Stream size                              : 479240000
Stream size                              : 457 MiB (5%)
Stream size                              : 457 MiB
Stream size                              : 457 MiB
Stream size                              : 457 MiB
Stream size                              : 457.0 MiB
Stream size                              : 457 MiB (5%)
Proportion of this stream                : 0.04539
Title                                    : Ita. AC3 640 Kbps
Language                                 : it
Language                                 : Italian
Language                                 : Italian
Language                                 : it
Language                                 : ita
Language                                 : it
Default                                  : No
Default                                  : No
Forced                                   : No
Forced                                   : No
bsid                                     : 8
dialnorm                                 : -31
dialnorm/String                          : -31 dB
acmod                                    : 7
lfeon                                    : 1
dialnorm_Average                         : -31
dialnorm_Average/String                  : -31 dB
dialnorm_Minimum                         : -31
dialnorm_Minimum/String                  : -31 dB
dialnorm_Maximum                         : -31
dialnorm_Maximum/String                  : -31 dB
dialnorm_Count                           : 2

Audio #3
Count                                    : 230
Count of stream of this kind             : 4
Kind of stream                           : Audio
Kind of stream                           : Audio
Stream identifier                        : 2
Stream identifier                        : 3
StreamOrder                              : 3
ID                                       : 4
ID                                       : 4
Unique ID                                : 9234078190912665254
Format                                   : DTS
Format/Info                              : Digital Theater Systems
Commercial name                          : DTS
Mode                                     : 16
Format settings, Endianness              : Big
Codec ID                                 : A_DTS
Codec                                    : DTS
Codec                                    : DTS
Codec/Family                             : DTS
Duration                                 : 5990500
Duration                                 : 1h 39mn
Duration                                 : 1h 39mn 50s 500ms
Duration                                 : 1h 39mn
Duration                                 : 01:39:50.500
Bit rate mode                            : CBR
Bit rate mode                            : Constant
Bit rate                                 : 1509000
Bit rate                                 : 1 509 Kbps
Channel(s)                               : 6
Channel(s)                               : 6 channels
Channel positions                        : Front: L C R, Side: L R, LFE
Channel positions                        : 3/2/0.1
ChannelLayout                            : C L R Ls Rs LFE
Sampling rate                            : 48000
Sampling rate                            : 48.0 KHz
Samples count                            : 287544000
Resolution                               : 24
Resolution                               : 24 bits
Bit depth                                : 24
Bit depth                                : 24 bits
Compression mode                         : Lossy
Compression mode                         : Lossy
Delay                                    : 0
Delay                                    : 00:00:00.000
Delay, origin                            : Container
Delay, origin                            : Container
Delay relative to video                  : 0
Video0 delay                             : 0
Stream size                              : 1129958062
Stream size                              : 1.05 GiB (11%)
Stream size                              : 1 GiB
Stream size                              : 1.1 GiB
Stream size                              : 1.05 GiB
Stream size                              : 1.052 GiB
Stream size                              : 1.05 GiB (11%)
Proportion of this stream                : 0.10701
Title                                    : Fra. DTS 1510 Kbps
Language                                 : fr
Language                                 : French
Language                                 : French
Language                                 : fr
Language                                 : fra
Language                                 : fr
Default                                  : No
Default                                  : No
Forced                                   : No
Forced                                   : No

Audio #4
Count                                    : 242
Count of stream of this kind             : 4
Kind of stream                           : Audio
Kind of stream                           : Audio
Stream identifier                        : 3
Stream identifier                        : 4
StreamOrder                              : 4
ID                                       : 5
ID                                       : 5
Unique ID                                : 6081810790688931506
Format                                   : AC-3
Format/Info                              : Audio Coding 3
Commercial name                          : AC-3
Mode extension                           : CM (complete main)
Format settings, Endianness              : Big
Codec ID                                 : A_AC3
Codec                                    : AC3
Codec                                    : AC3
Codec/Family                             : AC3
Codec/Info                               : Dolby AC3
Duration                                 : 5990500
Duration                                 : 1h 39mn
Duration                                 : 1h 39mn 50s 500ms
Duration                                 : 1h 39mn
Duration                                 : 01:39:50.500
Bit rate mode                            : CBR
Bit rate mode                            : Constant
Bit rate                                 : 640000
Bit rate                                 : 640 Kbps
Channel(s)                               : 6
Channel(s)                               : 6 channels
Channel positions                        : Front: L C R, Side: L R, LFE
Channel positions                        : 3/2/0.1
ChannelLayout                            : L C R LFE Ls Rs
Sampling rate                            : 48000
Sampling rate                            : 48.0 KHz
Samples count                            : 287544000
Resolution                               : 16
Resolution                               : 16 bits
Bit depth                                : 16
Bit depth                                : 16 bits
Compression mode                         : Lossy
Compression mode                         : Lossy
Delay                                    : 0
Delay                                    : 00:00:00.000
Delay, origin                            : Container
Delay, origin                            : Container
Delay relative to video                  : 0
Video0 delay                             : 0
Stream size                              : 479240000
Stream size                              : 457 MiB (5%)
Stream size                              : 457 MiB
Stream size                              : 457 MiB
Stream size                              : 457 MiB
Stream size                              : 457.0 MiB
Stream size                              : 457 MiB (5%)
Proportion of this stream                : 0.04539
Title                                    : Fra. AC3 640 Kbps
Language                                 : fr
Language                                 : French
Language                                 : French
Language                                 : fr
Language                                 : fra
Language                                 : fr
Default                                  : No
Default                                  : No
Forced                                   : No
Forced                                   : No
bsid                                     : 8
dialnorm                                 : -31
dialnorm/String                          : -31 dB
acmod                                    : 7
lfeon                                    : 1
dialnorm_Average                         : -31
dialnorm_Average/String                  : -31 dB
dialnorm_Minimum                         : -31
dialnorm_Minimum/String                  : -31 dB
dialnorm_Maximum                         : -31
dialnorm_Maximum/String                  : -31 dB
dialnorm_Count                           : 2

Text
Count                                    : 195
Count of stream of this kind             : 1
Kind of stream                           : Text
Kind of stream                           : Text
Stream identifier                        : 0
StreamOrder                              : 5
ID                                       : 6
ID                                       : 6
Unique ID                                : 2381331594322033821
Format                                   : UTF-8
Commercial name                          : UTF-8
Codec ID                                 : S_TEXT/UTF8
Codec ID/Info                            : UTF-8 Plain Text
Codec                                    : S_TEXT/UTF8
Codec                                    : UTF-8
Codec/Info                               : UTF-8 Plain Text
Title                                    : Sub. Ita. Non Udenti
Language                                 : it
Language                                 : Italian
Language                                 : Italian
Language                                 : it
Language                                 : ita
Language                                 : it
Default                                  : No
Default                                  : No
Forced                                   : No
Forced                                   : No

Menu
Count                                    : 97
Count of stream of this kind             : 1
Kind of stream                           : Menu
Kind of stream                           : Menu
Stream identifier                        : 0
Chapters_Pos_Begin                       : 77
Chapters_Pos_End                         : 97
00:00:00.000                             : en:00:00:00.000
00:07:23.583                             : en:00:07:23.583
00:10:24.958                             : en:00:10:24.958
00:14:04.292                             : en:00:14:04.292
00:18:34.708                             : en:00:18:34.708
00:22:26.125                             : en:00:22:26.125
00:27:06.000                             : en:00:27:06.000
00:31:28.167                             : en:00:31:28.167
00:35:41.167                             : en:00:35:41.167
00:40:21.750                             : en:00:40:21.750
00:47:40.917                             : en:00:47:40.917
00:51:50.542                             : en:00:51:50.542
00:58:21.750                             : en:00:58:21.750
01:03:14.583                             : en:01:03:14.583
01:08:48.500                             : en:01:08:48.500
01:16:08.750                             : en:01:16:08.750
01:20:33.250                             : en:01:20:33.250
01:26:04.708                             : en:01:26:04.708
01:30:25.083                             : en:01:30:25.083
01:34:27.458                             : en:01:34:27.458


